# xmcd CD database file
#
# Track frame offsets:
#	150
#	38540
#	69290
#	105790
#	129044
#	161964
#	186924
#	232106
#
# Disc length: 3466 seconds
#
# Revision: 0
# Processed by: cddbd v1.5.2PL0 Copyright (c) Steve Scherf et al.
# Submitted via: CDex 1.50Beta7
#
DISCID=5b0d8808
DTITLE=Berlin Philharmonic Jazz Group - Berlin Philharmonic Jazz Group
DYEAR=2001
DGENRE=Jazz
TTITLE0=Spain
TTITLE1=Summertime
TTITLE2=In a sentimental mood
TTITLE3=Oleo
TTITLE4=Song for my father
TTITLE5=Seven steps to heaven
TTITLE6=Equinox
TTITLE7=I remember Clifford
EXTD=YEAR: 2001
EXTT0=
EXTT1=
EXTT2=
EXTT3=
EXTT4=
EXTT5=
EXTT6=
EXTT7=
PLAYORDER=
